# xmcd
#
# Track frame offsets:
#	150
#	16661
#	31872
#	51594
#	69066
#	83630
#	101018
#	116855
#	132112
#	152965
#
# Disc length: 2252 seconds
#
# Revision: 1
# Processed by: cddbd v1.5PL3 Copyright (c) Steve Scherf et al.
# Submitted via: EasyCDDAExtractor 5.0.6
#
DISCID=7808ca0a
DTITLE=Pepe Aguilar - Mis Baladas Consentidas CD1
DYEAR=2003
DGENRE=Ranchera
TTITLE0=Me Esta Llorando El Corazon
TTITLE1=Que Sepan Todos
TTITLE2=Me Vas A Estranar
TTITLE3=Es Mejor Decir Adios
TTITLE4=Apuesto
TTITLE5=Fuistes Tu
TTITLE6=Si Tu Te Vas
TTITLE7=Ya Vete
TTITLE8=Ya Para Que
TTITLE9=Mas Alto Que Las Aguilas
EXTD=
EXTT0=
EXTT1=
EXTT2=
EXTT3=
EXTT4=
EXTT5=
EXTT6=
EXTT7=
EXTT8=
EXTT9=
PLAYORDER=
